<svg xmlns="http://www.w3.org/2000/svg" viewBox="0 0 1024 1024"><path d="M520.6 649.6l157.3-90.8V377.1l-157.3 90.8zm15 8.7l142.3 82.1V576.2zm133.7-313.4V180.6l-142.2 82.1zM512 271.4l-157.3 90.8L512 453.1l157.3-90.9zm-15.1-8.7l-142.2-82.1v164.3zM693 385.8v164.3l142.2-82.2zM503.4 649.6V467.9l-157.3-90.8v181.7zM331 385.8l-142.2 82.1L331 550.1zm15.1 190.4v164.2l142.3-82.1z"/><path d="M853.5 1h-683C77.3 1 1 77.3 1 170.5v682.9C1 946.7 77.3 1023 170.5 1023h467.7L512 716.4 420.4 910H170.5c-30.6 0-56.5-25.9-56.5-56.5v-683c0-30.6 25.9-56.5 56.5-56.5h682.9c30.6 0 56.5 25.9 56.5 56.5v682.9c0 30.6-25.9 56.5-56.5 56.5H705.3l46.5 113h101.7c93.2 0 169.5-76.3 169.5-169.5V170.5C1023 77.3 946.7 1 853.5 1z"/></svg>