<svg id="Layer_1" data-name="Layer 1" xmlns="http://www.w3.org/2000/svg" viewBox="0 0 1024 1024"><defs><style>.cls-1{fill:#fff}</style></defs><path class="cls-1" d="M520.57 649.6l157.33-90.84V377.09l-157.33 90.84V649.6zm15.06 8.7l142.27 82.14V576.16L535.63 658.3zm133.71-313.45V180.57l-142.27 82.14 142.27 82.14zM512 271.41l-157.34 90.84L512 453.09l157.34-90.84L512 271.41zm-15.07-8.7l-142.27-82.14v164.28l142.27-82.14zm196.04 123.08v164.27l142.27-82.13-142.27-82.14zM503.43 649.6V467.93L346.1 377.09v181.67l157.33 90.84zm-172.4-263.81l-142.27 82.14 142.27 82.13V385.79zm15.07 190.37v164.28l142.27-82.14-142.27-82.14z"/><path class="cls-1" d="M853.47 1H170.53C77.29 1 1 77.29 1 170.53v682.94C1 946.71 77.29 1023 170.53 1023h467.7L512 716.39 420.42 910H170.53C139.9 910 114 884.1 114 853.47V170.53c0-30.63 25.9-56.53 56.53-56.53h682.94c30.63 0 56.53 25.9 56.53 56.53v682.94c0 30.63-25.9 56.53-56.53 56.53H705.28l46.52 113h101.67c93.24 0 169.53-76.29 169.53-169.53V170.53C1023 77.29 946.71 1 853.47 1z"/></svg>